<svg width="115" height="16" viewBox="0 0 115 16" fill="none" xmlns="http://www.w3.org/2000/svg">
<path d="M16.5386 6.00296C16.5036 5.8957 16.4109 5.81748 16.2992 5.80119L10.9392 5.02222L8.54216 0.165333C8.49238 0.064 8.38927 0 8.27668 0C8.16408 0 8.06068 0.064 8.01119 0.165333L5.61386 5.02252L0.253861 5.80148C0.142157 5.81778 0.049713 5.8957 0.0144538 6.00326C-0.0202129 6.11022 0.00852784 6.22815 0.0894167 6.30667L3.96823 10.0874L3.05238 15.4261C3.03342 15.5372 3.07905 15.6495 3.17001 15.7159C3.26156 15.7828 3.38275 15.7914 3.48201 15.7384L8.27668 13.2181L13.0708 15.7384C13.114 15.7612 13.1617 15.7724 13.2088 15.7724C13.2702 15.7724 13.3312 15.7535 13.383 15.7159C13.4743 15.6495 13.5199 15.5372 13.5007 15.4261L12.5851 10.0877L16.4639 6.30667C16.5445 6.22756 16.5736 6.10993 16.5386 6.00296Z" fill="#EF9546"/>
<path d="M41.0918 6.00296C41.0569 5.8957 40.9641 5.81748 40.8524 5.80119L35.4924 5.02222L33.0954 0.165333C33.0456 0.064 32.9425 0 32.8299 0C32.7173 0 32.6139 0.064 32.5644 0.165333L30.1671 5.02252L24.8071 5.80148C24.6954 5.81778 24.6029 5.8957 24.5677 6.00326C24.533 6.11022 24.5618 6.22815 24.6426 6.30667L28.5215 10.0874L27.6056 15.4261C27.5866 15.5372 27.6323 15.6495 27.7232 15.7159C27.8148 15.7828 27.936 15.7914 28.0352 15.7384L32.8299 13.2181L37.624 15.7384C37.6672 15.7612 37.7149 15.7724 37.762 15.7724C37.8234 15.7724 37.8844 15.7535 37.9363 15.7159C38.0275 15.6495 38.0732 15.5372 38.0539 15.4261L37.1383 10.0877L41.0172 6.30667C41.0978 6.22756 41.1268 6.10993 41.0918 6.00296Z" fill="#EF9546"/>
<path d="M65.6449 6.00296C65.61 5.8957 65.5172 5.81748 65.4055 5.80119L60.0455 5.02222L57.6485 0.165333C57.5987 0.064 57.4956 0 57.383 0C57.2704 0 57.167 0.064 57.1175 0.165333L54.7202 5.02252L49.3602 5.80148C49.2485 5.81778 49.156 5.8957 49.1208 6.00326C49.0861 6.11022 49.1149 6.22815 49.1957 6.30667L53.0746 10.0874L52.1587 15.4261C52.1397 15.5372 52.1854 15.6495 52.2763 15.7159C52.3679 15.7828 52.4891 15.7914 52.5883 15.7384L57.383 13.2181L62.1771 15.7384C62.2203 15.7612 62.268 15.7724 62.3151 15.7724C62.3765 15.7724 62.4375 15.7535 62.4894 15.7159C62.5806 15.6495 62.6263 15.5372 62.607 15.4261L61.6914 10.0877L65.5703 6.30667C65.6509 6.22756 65.6799 6.10993 65.6449 6.00296Z" fill="#EF9546"/>
<path d="M90.1981 6.00296C90.1632 5.8957 90.0704 5.81748 89.9587 5.80119L84.5987 5.02222L82.2017 0.165333C82.1519 0.064 82.0488 0 81.9362 0C81.8236 0 81.7202 0.064 81.6707 0.165333L79.2734 5.02252L73.9134 5.80148C73.8017 5.81778 73.7093 5.8957 73.674 6.00326C73.6393 6.11022 73.6681 6.22815 73.749 6.30667L77.6278 10.0874L76.7119 15.4261C76.693 15.5372 76.7386 15.6495 76.8296 15.7159C76.9211 15.7828 77.0423 15.7914 77.1416 15.7384L81.9362 13.2181L86.7303 15.7384C86.7736 15.7612 86.8213 15.7724 86.8684 15.7724C86.9297 15.7724 86.9907 15.7535 87.0426 15.7159C87.1339 15.6495 87.1795 15.5372 87.1602 15.4261L86.2447 10.0877L90.1235 6.30667C90.2041 6.22756 90.2331 6.10993 90.1981 6.00296Z" fill="#EF9546"/>
<path d="M114.751 6.00296C114.716 5.8957 114.624 5.81748 114.512 5.80119L109.152 5.02222L106.755 0.165333C106.705 0.064 106.602 0 106.489 0C106.377 0 106.273 0.064 106.224 0.165333L103.827 5.02252L98.4666 5.80148C98.3549 5.81778 98.2625 5.8957 98.2272 6.00326C98.1926 6.11022 98.2213 6.22815 98.3022 6.30667L102.181 10.0874L101.265 15.4261C101.246 15.5372 101.292 15.6495 101.383 15.7159C101.474 15.7828 101.596 15.7914 101.695 15.7384L106.489 13.2181L111.284 15.7384C111.327 15.7612 111.374 15.7724 111.422 15.7724C111.483 15.7724 111.544 15.7535 111.596 15.7159C111.687 15.6495 111.733 15.5372 111.713 15.4261L110.798 10.0877L114.677 6.30667C114.757 6.22756 114.786 6.10993 114.751 6.00296Z" fill="#EF9546"/>
</svg>
